<?xml version="1.0" standalone="no"?>
<!DOCTYPE svg PUBLIC "-//W3C//DTD SVG 1.0//EN" "http://www.w3.org/TR/2001/REC-SVG-20010904/DTD/svg10.dtd">
<svg id="faa45733-e8c3-435b-8e1a-3a3072fd9b28" data-name="Fullhead" xmlns="http://www.w3.org/2000/svg" viewBox="0 0 80.20929 87.4342">
  <defs>
    <style>
      .bdd96621-ef99-4f5e-bbc6-d521ca388cea {
        fill: #2f81f7;
      }

      .ae442493-93fb-4553-97b7-401c9fe9f757 {
        fill: #161b22;
      }
    </style>
  </defs>
  <title>cathead</title>
  <path id="a253cc3e-caf3-49ca-8d6a-997d593b2d60" data-name="Head" class="bdd96621-ef99-4f5e-bbc6-d521ca388cea" d="M89.91069,25.25812a4.87465,4.87465,0,0,0-7.72986-4.62122l-.00806-.00489L62.01015,34.29752a33.6033,33.6033,0,0,0-17.21051.01333L24.74536,20.71871l-.00812.00483a4.867,4.867,0,0,0-7.72986,4.62122l-.01447.0087,4.5144,31.13535a33.50731,33.50731,0,1,0,63.87629.101l4.54156-31.323Z" transform="translate(-13.35442 -16.22081)"/>
  <g id="a579cc3d-f759-4a95-b1c7-f39e1f09381e" data-name="Outline">
    <g>
      <path id="a7f21877-0a15-48d9-99e4-f1d34c5a50d6" data-name="Smile" class="ae442493-93fb-4553-97b7-401c9fe9f757" d="M56.36822,83.12041a9.50283,9.50283,0,0,1-5.16065-1.50293,9.50563,9.50563,0,0,1-5.16113,1.50293,9.60192,9.60192,0,0,1-8.731-13.62256,2.5001,2.5001,0,0,1,4.543,2.08886,4.56818,4.56818,0,0,0-.42529,1.9209,4.61819,4.61819,0,0,0,4.61328,4.6128,4.57141,4.57141,0,0,0,3.34619-1.44727,2.49953,2.49953,0,0,1,1.81494-.78076h0a2.50024,2.50024,0,0,1,1.81543.78125,4.56719,4.56719,0,0,0,3.34522,1.44678,4.61819,4.61819,0,0,0,4.61328-4.6128,4.56818,4.56818,0,0,0-.42529-1.9209,2.5001,2.5001,0,0,1,4.543-2.08886,9.60192,9.60192,0,0,1-8.731,13.62256Z" transform="translate(-13.35442 -16.22081)"/>
      <circle id="e9ddfb69-7717-4ffd-98df-dbe4ef30d0b5" data-name="Right Eye" class="ae442493-93fb-4553-97b7-401c9fe9f757" cx="54.47688" cy="40.48169" r="5.97224"/>
      <circle id="a0d16950-1076-45df-84c5-6bb8af33f2ba" data-name="Left Eye" class="ae442493-93fb-4553-97b7-401c9fe9f757" cx="23.58339" cy="40.48169" r="5.97224"/>
      <path id="bc1197a7-f3b9-46b7-9188-04359004f74e" data-name="Outline" class="ae442493-93fb-4553-97b7-401c9fe9f757" d="M93.324,23.75A9.69245,9.69245,0,0,0,78.43151,17.8939q-.08387.05209-.166.10779L60.67907,29.92119a37.26656,37.26656,0,0,0-14.54553.01184L28.6527,18.08513q-.08257-.056-.16668-.10828a9.61691,9.61691,0,0,0-3.26618-1.42535,9.69454,9.69454,0,0,0-11.62567,7.28173,9.58152,9.58152,0,0,0-.198,3.0318,4.95386,4.95386,0,0,0,.04816.53333l4.18573,28.86871a37.21571,37.21571,0,1,0,71.6344.07923L93.47375,27.315a5.00858,5.00858,0,0,0,.0487-.53858A9.58414,9.58414,0,0,0,93.324,23.75ZM18.39257,26.68089l.01392-.00836a4.67056,4.67056,0,0,1,4.6372-5.36841,4.687,4.687,0,0,1,2.796.92456l.00782-.00464,14.06982,9.53607A37.42892,37.42892,0,0,0,21.409,47.48466Zm70.13294-.08337L84.15826,56.71831a32.29422,32.29422,0,1,1-31.6781-22.48377c.31616-.00915.631-.024.9494-.024a32.25828,32.25828,0,0,1,8.25238,1.07111l19.38873-13.141.00775.0047a4.68012,4.68012,0,0,1,7.43317,4.44385Z" transform="translate(-13.35442 -16.22081)"/>
    </g>
  </g>
</svg>